<svg xmlns="http://www.w3.org/2000/svg" height="28" viewBox="0 0 163 28"><g fill="none" fill-rule="evenodd"><path d="m101.52721,8.54279l0,-1.4267l-12.15665,0l0,-6.53903l-1.45642,0l0,6.53903l-12.03776,0l0,1.4267l9.95716,0a31.68189,31.68189 0 0 1 -7.4747,10.61195a18.77236,18.77236 0 0 1 -3.13636,2.31749a3.20412,3.20412 0 0 1 0.1397,0.12186c0.30139,0.27731 0.65688,0.68927 0.86345,0.99631a3.10128,3.10128 0 0 1 0.00743,0.01129a24.82334,24.82334 0 0 0 4.98601,-4.35499a34.56054,34.56054 0 0 0 6.07089,-9.70392l0.62418,0l0,11.65136l-7.34154,0l0,1.4267l7.34154,0l0,5.8554l1.45642,0l0,-5.8554l7.40099,0l0,-1.4267l-7.40099,0l0,-11.65136l0.56473,0c2.37783,5.91485 6.65792,11.35413 11.29468,13.99946a9.68638,9.68638 0 0 1 0.14178,-0.18398c0.22381,-0.28385 0.5145,-0.62299 0.77904,-0.87207a3.31469,3.31469 0 0 1 0.14921,-0.13286a19.95473,19.95473 0 0 1 -5.21517,-4.00932a29.5243,29.5243 0 0 1 -5.75256,-8.80123l10.19494,0l0,0.00001zm-51.77721,-5.82568l0,24.43218l1.4267,0l0,-1.93199l15.75311,0l0,1.75365l1.45642,0l0,-24.25385l-18.63623,0l0,0.00001zm1.4267,21.10322l0,-9.24381l15.75311,0l0,9.24381l-15.75311,0zm15.75311,-19.67653l0,9.03575l-15.75311,0l0,-9.03575l15.75311,0z" class="fill-current"/><path fill="#00C58E" d="m131.12276,13.13531l0,-6.16851l-6.28274,0c0.22846,-1.19943 0.45693,-2.39886 0.62827,-3.48406l7.9391,0l0,-1.22799l-14.47886,0l0,1.22799l5.19754,0a89.00386,89.00386 0 0 0 -0.00457,0.02542c-0.19848,1.07863 -0.39695,2.26864 -0.6237,3.45865l-3.91243,0l0,1.19943l3.68397,0a660.42988,660.42988 0 0 1 -0.53917,2.65589c-0.13108,0.63199 -0.26016,1.2317 -0.38896,1.78116a36.67663,36.67663 0 0 1 -0.12851,0.53203l-4.02666,0l0,1.25655l15.76396,0l0,-1.25655l-2.82723,0l-0.00001,-0.00001zm-11.25182,13.73635l1.31366,0l0,-1.39934l9.5669,0l0,1.28511l1.34222,0l0,-9.96671l-12.22278,0l0,10.08094zm-2.31319,-9.93815l-8.19612,0l0,9.53834l1.22799,0l0,-1.4279l6.96813,0l0,-8.11045l0,0.00001zm13.19375,1.11376l0,6.16851l-9.5669,0l0,-6.16851l9.5669,0zm-12.39413,-12.16567l-10.16661,0l0,1.22799l10.16661,0l0,-1.22799zm-2.05617,12.2799l0,5.65447l-5.71158,0l0,-5.65447l5.71158,0zm13.53645,-9.99527l0,4.96908l-6.25418,0c0.19648,-0.85674 0.40381,-1.86969 0.62256,-2.95517a1240.03659,1240.03659 0 0 1 0.40552,-2.0139l5.2261,0l0,-0.00001zm-12.45125,5.05475l-8.05333,0l0,1.19943l8.05333,0l0,-1.19943zm0,-2.5131l0,-1.17087l-8.05333,0l0,1.17087l8.05333,0zm-4.82629,-9.85248l-1.0852,0.59972a16.3137,16.3137 0 0 1 0.297,0.41323c0.74108,1.06492 1.499,2.39287 1.90196,3.2993l1.14232,-0.68539a10.13463,10.13463 0 0 0 -0.34184,-0.68796c-0.50205,-0.93042 -1.23513,-2.03332 -1.91424,-2.93889l0,-0.00001z" class="fill-nuxt-lightgreen"/><path d="M2.33333333 25.5383333h8.82388887c.0504817-.3348565.1583603-.6584924.3188889-.9566666l8.2755556-14.5522223-4.305-7.56777773L2.33333333 25.5383333zM30.8933333 25.5383333H35L24.22 6.58777778l-1.9444444 3.44166662 8.26 14.5522223c.1760377.2946737.297253.6187929.3577777.9566666zM21.0077778 12.2383333l-7.5638889 13.3h15.1238889z"/><path fill="#00C58E" d="M11.3633333 26.7866667a1.37669204 1.37669204 0 0 1-.0738889-.1516667c-.1491638-.3450868-.1950914-.7260156-.1322222-1.0966667H2.33333333L15.4466667 2.46166667l4.305 7.56777773L21 7.82055556l-3.7527778-6.61111112C17.1422222 1.01888889 16.5083333 0 15.4155556 0c-.4938889 0-1.2016667.21388889-1.7772223 1.225L.35388889 24.5816667c-.11277778.2022222-.66111111 1.2638889-.11666667 2.205.2488889.4277777.77777778.9372222 1.94444445.9372222H13.3077778c-1.1588889 0-1.6955556-.5016667-1.9444445-.9372222z" class="fill-nuxt-lightgreen"/><path fill="#108775" d="M36.9444444 24.5816667L26.0283333 5.35111111c-.1127777-.20222222-.7427777-1.225-1.8394444-1.225-.4938889 0-1.2016667.21-1.7772222 1.22111111L21 7.82055556l1.2561111 2.20888884 1.9444445-3.44166662L35 25.5383333h-4.1066667c.0525492.3132796.0230739.6348285-.0855555.9333334a1.18999367 1.18999367 0 0 1-.0855556.1905555l-.035.07c-.5522222.9411111-1.7461111.9916667-1.9794444.9916667h6.4244444c.2372222 0 1.4272222-.0505556 1.9794445-.9916667.245-.4277778.42-1.1472222-.1672223-2.1505555z" class="fill-nuxt-green"/><path fill-rule="nonzero" d="M30.6872222 26.7322222l.035-.07a1.18999367 1.18999367 0 0 0 .0855556-.1905555c.1086294-.2985049.1381047-.6200538.0855555-.9333334-.0605247-.3378737-.18174-.6619929-.3577777-.9566666l-8.2716667-14.5522223L21 7.82055556l-1.2561111 2.20888884-8.2677778 14.5522223c-.1605286.2981742-.2684072.6218101-.3188889.9566666-.0665405.369528-.0246696.750418.1205556 1.0966667a1.37665623 1.37665623 0 0 0 .0738889.1516667c.2488889.4277777.7777777.9372222 1.9444444.9372222h15.4c.245 0 1.4388889-.0505556 1.9911111-.9916667zM21 12.2383333l7.56 13.3H13.4438889L21 12.2383333z" class="fill-current"/></g></svg>